<svg width="246" height="97" viewBox="0 0 246 97" fill="none" xmlns="http://www.w3.org/2000/svg">
<mask id="mask0_150_37" style="mask-type:alpha" maskUnits="userSpaceOnUse" x="2" y="2" width="241" height="93">
<circle cx="199" cy="28" r="4" fill="#D9D9D9"/>
<circle cx="47" cy="69" r="4" fill="#D9D9D9"/>
<path d="M34 69C25.2727 69 6 72.8596 6 91" stroke="black" stroke-width="8" stroke-linecap="round"/>
<path d="M211 28C224.5 28 238.5 19.5 238.5 6" stroke="black" stroke-width="8" stroke-linecap="round"/>
<path d="M12.164 47.484H11.658C10.646 47.484 10.186 47.3 9.91 46.518L7.886 41.182C7.84 41.044 7.794 40.906 7.794 40.814C7.794 40.124 8.714 40.032 9.266 40.032C11.98 39.986 13.268 38.698 13.268 37.594C13.268 36.996 12.67 36.26 12.026 35.432L10.784 34.052C8.76 31.752 7.932 29.774 7.932 28.026C7.932 22.828 15.43 20.068 21.456 20.068C23.25 20.068 23.71 20.252 24.032 21.08L26.102 26.416C26.194 26.6 26.194 26.738 26.194 26.876C26.194 27.382 25.688 27.566 25.09 27.566H24.906C22.146 27.566 21.088 28.486 21.088 29.406C21.088 30.188 21.778 31.062 23.526 32.994C25.642 35.294 26.562 37.364 26.562 39.112C26.562 44.54 18.328 47.484 12.164 47.484ZM63.7419 43.344L59.3719 46.932C58.8659 47.346 58.4059 47.484 57.9919 47.484C57.8079 47.484 49.2979 45.92 49.2979 36.582C49.2979 31.016 46.7219 29.038 43.4099 29.038H43.1799V45.736C43.1799 46.288 42.7659 46.702 42.2599 46.702H33.0599C32.5079 46.702 32.0939 46.288 32.0939 45.736V8.108C32.0939 7.602 32.5079 7.142 33.0599 7.142H42.2599C42.7659 7.142 43.1799 7.602 43.1799 8.108V20.068C43.7319 20.022 44.2839 20.022 44.7899 20.022C53.4379 20.022 60.3379 25.174 60.4759 34.282C60.5219 37.272 61.1199 39.572 63.3739 41.366C63.6499 41.596 64.1559 42.056 64.1559 42.562C64.1559 42.792 64.0639 43.068 63.7419 43.344ZM97.5228 40.906L94.6708 46.472C94.2568 47.254 93.7968 47.668 93.1988 47.668C92.7388 47.668 89.5188 46.932 87.2188 44.77C84.8268 46.012 82.3428 46.564 79.9968 46.564C72.3148 46.564 65.6908 40.676 65.6908 33.27C65.6908 27.75 69.6008 19.792 78.7088 19.792C81.0088 19.792 83.2628 20.298 85.0568 21.08C85.3328 20.758 85.7468 20.62 86.2988 20.62H86.5288L94.4868 21.31C95.6828 21.402 96.0048 22 96.0048 22.552V22.782C95.3608 26.968 94.7168 30.97 94.7168 34.006C94.7168 36.766 95.2228 38.744 96.6948 39.526C97.1548 39.756 97.6608 40.032 97.6608 40.492C97.6608 40.584 97.6148 40.722 97.5228 40.906ZM84.0448 37.548C83.9068 36.352 83.8148 35.064 83.8148 33.638C83.8148 32.442 83.8608 31.2 83.9528 29.82C83.4008 28.9 82.1588 28.256 80.8248 28.256C77.9268 28.256 76.3168 31.062 76.3168 33.408C76.3168 35.984 78.1108 38.192 81.1008 38.192C81.9748 38.192 82.9868 38.008 84.0448 37.548ZM132.671 40.4L130.187 46.15C129.819 47.024 129.359 47.484 128.669 47.484C128.669 47.484 124.713 47.07 122.137 44.494C119.561 45.92 116.893 46.564 114.363 46.564C106.681 46.564 100.103 40.676 100.103 33.27C100.103 27.658 104.013 19.792 113.121 19.792C115.099 19.792 117.077 20.206 118.733 20.804L119.561 8.476C119.607 7.694 120.343 7.234 121.263 7.234L129.221 7.372C130.509 7.372 130.877 7.97 130.877 8.614V8.752C130.785 9.35 129.313 28.532 129.313 31.706C129.313 35.478 129.865 38.284 131.751 39.112C132.257 39.342 132.763 39.572 132.763 39.986C132.763 40.124 132.763 40.262 132.671 40.4ZM118.871 37.318C118.549 35.248 118.365 32.81 118.365 29.866C117.859 28.946 116.571 28.302 115.191 28.302C112.431 28.302 110.683 30.832 110.683 33.408C110.683 35.984 112.477 38.192 115.421 38.192C116.433 38.192 117.583 37.916 118.871 37.318ZM150.89 47.576H150.338C139.896 47.576 134.652 40.446 134.652 33.454C134.652 26.876 139.298 19.976 149.786 19.976C161.194 19.976 161.7 30.142 161.7 31.66C161.7 33.776 160.826 35.524 158.112 36.444C155.95 37.18 152.546 37.686 150.154 37.778C149.418 37.778 149.188 37.456 149.004 36.904C148.452 35.386 147.578 32.396 147.578 32.212C147.578 31.706 147.946 31.476 148.544 31.338C150.936 30.786 151.258 30.694 151.258 30.05C151.258 29.636 150.384 28.164 148.452 28.164C146.244 28.164 144.404 30.096 144.404 32.948C144.404 36.214 146.796 39.894 152.546 39.894C152.868 39.894 153.236 39.894 153.558 39.848H153.65C154.294 39.848 155.076 40.262 155.076 41.044C155.076 41.504 153.88 44.632 153.19 46.196C152.822 46.932 152.224 47.576 150.89 47.576ZM177.581 46.518L168.427 47.024C167.875 47.024 167.415 46.656 167.415 46.104L166.127 22.184C166.127 21.632 166.541 21.172 167.047 21.172L172.383 20.896C174.867 20.114 177.259 19.746 179.559 19.746C181.123 19.746 182.641 19.93 184.067 20.252C184.757 20.436 185.033 20.804 185.033 21.356C185.033 21.54 184.987 21.724 184.941 21.954L183.607 28.44C183.469 29.084 183.009 29.406 182.457 29.406C182.319 29.406 182.135 29.36 181.951 29.314C181.215 29.084 180.433 28.946 179.651 28.946C179.007 28.946 178.363 29.038 177.627 29.222L178.501 45.506V45.598C178.501 46.104 178.087 46.518 177.581 46.518Z" fill="white"/>
<path d="M63.6682 91.362L65.1402 87.13C65.3242 86.532 65.8302 86.21 66.3362 86.21C66.4282 86.21 66.5202 86.256 66.6122 86.256C67.8542 86.578 68.9582 86.716 69.9702 86.716C73.8342 86.716 76.0882 84.508 77.1922 80.828C75.7662 81.288 74.2022 81.564 72.7302 81.564C65.6922 81.564 59.2982 75.906 59.2982 67.35C59.2982 61.784 62.6102 55.022 72.3162 55.022C74.5242 55.022 76.6402 55.436 78.4342 56.218C78.5722 55.712 78.9862 55.62 79.4002 55.62H79.6302C79.6302 55.62 87.1742 56.126 88.2322 56.172C88.9682 56.218 89.4282 56.816 89.4282 57.506C89.3362 65.602 89.2902 73.974 87.9562 80.874C86.0702 90.626 79.0322 94.444 71.8562 94.444C69.1882 94.444 66.5202 93.938 64.0822 92.972C63.6682 92.834 63.5762 92.466 63.5762 92.098C63.5762 91.822 63.6222 91.546 63.6682 91.362ZM78.0662 72.41L78.2962 72.272C78.3882 70.432 78.4342 68.408 78.4342 66.338C78.2502 64.176 76.4562 63.026 74.4782 63.026C71.5802 63.026 69.9702 65.372 69.9702 67.948C69.9702 69.742 70.7062 73.514 74.7542 73.514C75.8582 73.514 77.3302 73.008 78.0662 72.41ZM105.872 81.518L96.7177 82.024C96.1657 82.024 95.7057 81.656 95.7057 81.104L94.4177 57.184C94.4177 56.632 94.8317 56.172 95.3377 56.172L100.674 55.896C103.158 55.114 105.55 54.746 107.85 54.746C109.414 54.746 110.932 54.93 112.358 55.252C113.048 55.436 113.324 55.804 113.324 56.356C113.324 56.54 113.278 56.724 113.232 56.954L111.898 63.44C111.76 64.084 111.3 64.406 110.748 64.406C110.61 64.406 110.426 64.36 110.242 64.314C109.506 64.084 108.724 63.946 107.942 63.946C107.298 63.946 106.654 64.038 105.918 64.222L106.792 80.506V80.598C106.792 81.104 106.378 81.518 105.872 81.518ZM147.327 75.906L144.475 81.472C144.061 82.254 143.601 82.668 143.003 82.668C142.543 82.668 139.323 81.932 137.023 79.77C134.631 81.012 132.147 81.564 129.801 81.564C122.119 81.564 115.495 75.676 115.495 68.27C115.495 62.75 119.405 54.792 128.513 54.792C130.813 54.792 133.067 55.298 134.861 56.08C135.137 55.758 135.551 55.62 136.103 55.62H136.333L144.291 56.31C145.487 56.402 145.809 57 145.809 57.552V57.782C145.165 61.968 144.521 65.97 144.521 69.006C144.521 71.766 145.027 73.744 146.499 74.526C146.959 74.756 147.465 75.032 147.465 75.492C147.465 75.584 147.419 75.722 147.327 75.906ZM133.849 72.548C133.711 71.352 133.619 70.064 133.619 68.638C133.619 67.442 133.665 66.2 133.757 64.82C133.205 63.9 131.963 63.256 130.629 63.256C127.731 63.256 126.121 66.062 126.121 68.408C126.121 70.984 127.915 73.192 130.905 73.192C131.779 73.192 132.791 73.008 133.849 72.548ZM160.902 94.214L151.702 93.708C151.242 93.708 150.828 93.294 150.828 92.788V92.696L152.668 56.356C152.714 55.85 153.128 55.436 153.588 55.436H153.68L161.362 55.85C163.34 55.114 165.364 54.746 167.296 54.746C175.392 54.746 182.66 60.634 182.66 69.006C182.66 77.378 176.726 82.668 168.032 82.668C166.1 82.668 164.214 82.392 162.512 81.84L161.914 93.294C161.868 93.846 161.454 94.214 160.902 94.214ZM163.432 64.084L162.926 73.284C163.938 73.79 165.272 74.158 166.56 74.158C166.928 74.158 171.344 74.158 171.344 69.098C171.344 65.924 168.952 63.716 165.732 63.716C164.996 63.716 164.214 63.854 163.432 64.084ZM219.697 78.344L215.327 81.932C214.821 82.346 214.361 82.484 213.947 82.484C213.763 82.484 205.253 80.92 205.253 71.582C205.253 66.016 202.677 64.038 199.365 64.038H199.135V80.736C199.135 81.288 198.721 81.702 198.215 81.702H189.015C188.463 81.702 188.049 81.288 188.049 80.736V43.108C188.049 42.602 188.463 42.142 189.015 42.142H198.215C198.721 42.142 199.135 42.602 199.135 43.108V55.068C199.687 55.022 200.239 55.022 200.745 55.022C209.393 55.022 216.293 60.174 216.431 69.282C216.477 72.272 217.075 74.572 219.329 76.366C219.605 76.596 220.111 77.056 220.111 77.562C220.111 77.792 220.019 78.068 219.697 78.344Z" fill="white"/>
</mask>
<g mask="url(#mask0_150_37)">
<rect x="-55" y="-137" width="321" height="292" fill="url(#paint0_linear_150_37)"/>
</g>
<defs>
<linearGradient id="paint0_linear_150_37" x1="14.0048" y1="9.67908" x2="261.618" y2="124.04" gradientUnits="userSpaceOnUse">
<stop stop-color="#0EE811"/>
<stop offset="0.53" stop-color="#F28E0B"/>
<stop offset="1" stop-color="#FA0202"/>
</linearGradient>
</defs>
</svg>
