<svg width="241" height="123" viewBox="0 0 241 123" fill="none" xmlns="http://www.w3.org/2000/svg">
<mask id="mask0_152_2" style="mask-type:alpha" maskUnits="userSpaceOnUse" x="10" y="10" width="222" height="103">
<ellipse cx="55.0902" cy="86" rx="4.09023" ry="4" fill="#D9D9D9"/>
<path d="M42.6316 86C33.7074 86 14 89.8596 14 108" stroke="black" stroke-width="8" stroke-linecap="round"/>
<ellipse cx="227.09" cy="14" rx="4.09023" ry="4" fill="#D9D9D9"/>
<path d="M199 48C212.805 48 227.12 39.5 227.12 26" stroke="black" stroke-width="8" stroke-linecap="round"/>
<path d="M16.164 62.484H15.658C14.646 62.484 14.186 62.3 13.91 61.518L11.886 56.182C11.84 56.044 11.794 55.906 11.794 55.814C11.794 55.124 12.714 55.032 13.266 55.032C15.98 54.986 17.268 53.698 17.268 52.594C17.268 51.996 16.67 51.26 16.026 50.432L14.784 49.052C12.76 46.752 11.932 44.774 11.932 43.026C11.932 37.828 19.43 35.068 25.456 35.068C27.25 35.068 27.71 35.252 28.032 36.08L30.102 41.416C30.194 41.6 30.194 41.738 30.194 41.876C30.194 42.382 29.688 42.566 29.09 42.566H28.906C26.146 42.566 25.088 43.486 25.088 44.406C25.088 45.188 25.778 46.062 27.526 47.994C29.642 50.294 30.562 52.364 30.562 54.112C30.562 59.54 22.328 62.484 16.164 62.484ZM67.7419 58.344L63.3719 61.932C62.8659 62.346 62.4059 62.484 61.9919 62.484C61.8079 62.484 53.2979 60.92 53.2979 51.582C53.2979 46.016 50.7219 44.038 47.4099 44.038H47.1799V60.736C47.1799 61.288 46.7659 61.702 46.2599 61.702H37.0599C36.5079 61.702 36.0939 61.288 36.0939 60.736V23.108C36.0939 22.602 36.5079 22.142 37.0599 22.142H46.2599C46.7659 22.142 47.1799 22.602 47.1799 23.108V35.068C47.7319 35.022 48.2839 35.022 48.7899 35.022C57.4379 35.022 64.3379 40.174 64.4759 49.282C64.5219 52.272 65.1199 54.572 67.3739 56.366C67.6499 56.596 68.1559 57.056 68.1559 57.562C68.1559 57.792 68.0639 58.068 67.7419 58.344ZM101.523 55.906L98.6708 61.472C98.2568 62.254 97.7968 62.668 97.1988 62.668C96.7388 62.668 93.5188 61.932 91.2188 59.77C88.8268 61.012 86.3428 61.564 83.9968 61.564C76.3148 61.564 69.6908 55.676 69.6908 48.27C69.6908 42.75 73.6008 34.792 82.7088 34.792C85.0088 34.792 87.2628 35.298 89.0568 36.08C89.3328 35.758 89.7468 35.62 90.2988 35.62H90.5288L98.4868 36.31C99.6828 36.402 100.005 37 100.005 37.552V37.782C99.3608 41.968 98.7168 45.97 98.7168 49.006C98.7168 51.766 99.2228 53.744 100.695 54.526C101.155 54.756 101.661 55.032 101.661 55.492C101.661 55.584 101.615 55.722 101.523 55.906ZM88.0448 52.548C87.9068 51.352 87.8148 50.064 87.8148 48.638C87.8148 47.442 87.8608 46.2 87.9528 44.82C87.4008 43.9 86.1588 43.256 84.8248 43.256C81.9268 43.256 80.3168 46.062 80.3168 48.408C80.3168 50.984 82.1108 53.192 85.1008 53.192C85.9748 53.192 86.9868 53.008 88.0448 52.548ZM136.671 55.4L134.187 61.15C133.819 62.024 133.359 62.484 132.669 62.484C132.669 62.484 128.713 62.07 126.137 59.494C123.561 60.92 120.893 61.564 118.363 61.564C110.681 61.564 104.103 55.676 104.103 48.27C104.103 42.658 108.013 34.792 117.121 34.792C119.099 34.792 121.077 35.206 122.733 35.804L123.561 23.476C123.607 22.694 124.343 22.234 125.263 22.234L133.221 22.372C134.509 22.372 134.877 22.97 134.877 23.614V23.752C134.785 24.35 133.313 43.532 133.313 46.706C133.313 50.478 133.865 53.284 135.751 54.112C136.257 54.342 136.763 54.572 136.763 54.986C136.763 55.124 136.763 55.262 136.671 55.4ZM122.871 52.318C122.549 50.248 122.365 47.81 122.365 44.866C121.859 43.946 120.571 43.302 119.191 43.302C116.431 43.302 114.683 45.832 114.683 48.408C114.683 50.984 116.477 53.192 119.421 53.192C120.433 53.192 121.583 52.916 122.871 52.318ZM154.89 62.576H154.338C143.896 62.576 138.652 55.446 138.652 48.454C138.652 41.876 143.298 34.976 153.786 34.976C165.194 34.976 165.7 45.142 165.7 46.66C165.7 48.776 164.826 50.524 162.112 51.444C159.95 52.18 156.546 52.686 154.154 52.778C153.418 52.778 153.188 52.456 153.004 51.904C152.452 50.386 151.578 47.396 151.578 47.212C151.578 46.706 151.946 46.476 152.544 46.338C154.936 45.786 155.258 45.694 155.258 45.05C155.258 44.636 154.384 43.164 152.452 43.164C150.244 43.164 148.404 45.096 148.404 47.948C148.404 51.214 150.796 54.894 156.546 54.894C156.868 54.894 157.236 54.894 157.558 54.848H157.65C158.294 54.848 159.076 55.262 159.076 56.044C159.076 56.504 157.88 59.632 157.19 61.196C156.822 61.932 156.224 62.576 154.89 62.576ZM181.581 61.518L172.427 62.024C171.875 62.024 171.415 61.656 171.415 61.104L170.127 37.184C170.127 36.632 170.541 36.172 171.047 36.172L176.383 35.896C178.867 35.114 181.259 34.746 183.559 34.746C185.123 34.746 186.641 34.93 188.067 35.252C188.757 35.436 189.033 35.804 189.033 36.356C189.033 36.54 188.987 36.724 188.941 36.954L187.607 43.44C187.469 44.084 187.009 44.406 186.457 44.406C186.319 44.406 186.135 44.36 185.951 44.314C185.215 44.084 184.433 43.946 183.651 43.946C183.007 43.946 182.363 44.038 181.627 44.222L182.501 60.506V60.598C182.501 61.104 182.087 61.518 181.581 61.518Z" fill="white"/>
<path d="M70.6682 109.362L72.1402 105.13C72.3242 104.532 72.8302 104.21 73.3362 104.21C73.4282 104.21 73.5202 104.256 73.6122 104.256C74.8542 104.578 75.9582 104.716 76.9702 104.716C80.8342 104.716 83.0882 102.508 84.1922 98.828C82.7662 99.288 81.2022 99.564 79.7302 99.564C72.6922 99.564 66.2982 93.906 66.2982 85.35C66.2982 79.784 69.6102 73.022 79.3162 73.022C81.5242 73.022 83.6402 73.436 85.4342 74.218C85.5722 73.712 85.9862 73.62 86.4002 73.62H86.6302C86.6302 73.62 94.1742 74.126 95.2322 74.172C95.9682 74.218 96.4282 74.816 96.4282 75.506C96.3362 83.602 96.2902 91.974 94.9562 98.874C93.0702 108.626 86.0322 112.444 78.8562 112.444C76.1882 112.444 73.5202 111.938 71.0822 110.972C70.6682 110.834 70.5762 110.466 70.5762 110.098C70.5762 109.822 70.6222 109.546 70.6682 109.362ZM85.0662 90.41L85.2962 90.272C85.3882 88.432 85.4342 86.408 85.4342 84.338C85.2502 82.176 83.4562 81.026 81.4782 81.026C78.5802 81.026 76.9702 83.372 76.9702 85.948C76.9702 87.742 77.7062 91.514 81.7542 91.514C82.8582 91.514 84.3302 91.008 85.0662 90.41ZM112.872 99.518L103.718 100.024C103.166 100.024 102.706 99.656 102.706 99.104L101.418 75.184C101.418 74.632 101.832 74.172 102.338 74.172L107.674 73.896C110.158 73.114 112.55 72.746 114.85 72.746C116.414 72.746 117.932 72.93 119.358 73.252C120.048 73.436 120.324 73.804 120.324 74.356C120.324 74.54 120.278 74.724 120.232 74.954L118.898 81.44C118.76 82.084 118.3 82.406 117.748 82.406C117.61 82.406 117.426 82.36 117.242 82.314C116.506 82.084 115.724 81.946 114.942 81.946C114.298 81.946 113.654 82.038 112.918 82.222L113.792 98.506V98.598C113.792 99.104 113.378 99.518 112.872 99.518ZM154.327 93.906L151.475 99.472C151.061 100.254 150.601 100.668 150.003 100.668C149.543 100.668 146.323 99.932 144.023 97.77C141.631 99.012 139.147 99.564 136.801 99.564C129.119 99.564 122.495 93.676 122.495 86.27C122.495 80.75 126.405 72.792 135.513 72.792C137.813 72.792 140.067 73.298 141.861 74.08C142.137 73.758 142.551 73.62 143.103 73.62H143.333L151.291 74.31C152.487 74.402 152.809 75 152.809 75.552V75.782C152.165 79.968 151.521 83.97 151.521 87.006C151.521 89.766 152.027 91.744 153.499 92.526C153.959 92.756 154.465 93.032 154.465 93.492C154.465 93.584 154.419 93.722 154.327 93.906ZM140.849 90.548C140.711 89.352 140.619 88.064 140.619 86.638C140.619 85.442 140.665 84.2 140.757 82.82C140.205 81.9 138.963 81.256 137.629 81.256C134.731 81.256 133.121 84.062 133.121 86.408C133.121 88.984 134.915 91.192 137.905 91.192C138.779 91.192 139.791 91.008 140.849 90.548ZM167.902 112.214L158.702 111.708C158.242 111.708 157.828 111.294 157.828 110.788V110.696L159.668 74.356C159.714 73.85 160.128 73.436 160.588 73.436H160.68L168.362 73.85C170.34 73.114 172.364 72.746 174.296 72.746C182.392 72.746 189.66 78.634 189.66 87.006C189.66 95.378 183.726 100.668 175.032 100.668C173.1 100.668 171.214 100.392 169.512 99.84L168.914 111.294C168.868 111.846 168.454 112.214 167.902 112.214ZM170.432 82.084L169.926 91.284C170.938 91.79 172.272 92.158 173.56 92.158C173.928 92.158 178.344 92.158 178.344 87.098C178.344 83.924 175.952 81.716 172.732 81.716C171.996 81.716 171.214 81.854 170.432 82.084ZM226.697 96.344L222.327 99.932C221.821 100.346 221.361 100.484 220.947 100.484C220.763 100.484 212.253 98.92 212.253 89.582C212.253 84.016 209.677 82.038 206.365 82.038H206.135V98.736C206.135 99.288 205.721 99.702 205.215 99.702H196.015C195.463 99.702 195.049 99.288 195.049 98.736V61.108C195.049 60.602 195.463 60.142 196.015 60.142H205.215C205.721 60.142 206.135 60.602 206.135 61.108V73.068C206.687 73.022 207.239 73.022 207.745 73.022C216.393 73.022 223.293 78.174 223.431 87.282C223.477 90.272 224.075 92.572 226.329 94.366C226.605 94.596 227.111 95.056 227.111 95.562C227.111 95.792 227.019 96.068 226.697 96.344Z" fill="white"/>
</mask>
<g mask="url(#mask0_152_2)">
<rect width="241" height="123" fill="url(#paint0_linear_152_2)"/>
</g>
<defs>
<linearGradient id="paint0_linear_152_2" x1="0" y1="0" x2="226.488" y2="145.578" gradientUnits="userSpaceOnUse">
<stop stop-color="#00FF00"/>
<stop offset="0.5" stop-color="#FFFF00"/>
<stop offset="1" stop-color="#FF0000"/>
</linearGradient>
</defs>
</svg>
